<svg width="18" height="20" viewBox="0 0 18 20" fill="none" xmlns="http://www.w3.org/2000/svg">
<path d="M9 10C9.65668 10.0001 10.3069 10.1295 10.9136 10.3808C11.5202 10.6322 12.0714 11.0006 12.5357 11.465C13 11.9294 13.3683 12.4806 13.6196 13.0874C13.8708 13.6941 14.0001 14.3443 14 15.001C13.9999 15.6577 13.8705 16.3079 13.6192 16.9146C13.3678 17.5212 12.9994 18.0724 12.535 18.5367C12.0706 19.001 11.5194 19.3693 10.9126 19.6206C10.3059 19.8718 9.65567 20.0011 8.999 20.001C7.67278 20.0009 6.40094 19.4739 5.46326 18.536C4.52558 17.5982 3.99887 16.3262 3.999 15C3.99913 13.6738 4.5261 12.4019 5.46397 11.4643C6.40184 10.5266 7.67378 9.99987 9 10V10ZM10 12H8V13.999L6 14V16L8 15.999V18H10V15.999L12 16V14L10 13.999V12ZM17 0C17.2652 0 17.5196 0.105357 17.7071 0.292893C17.8946 0.48043 18 0.734784 18 1V7C18 7.26522 17.8946 7.51957 17.7071 7.70711C17.5196 7.89464 17.2652 8 17 8H1C0.734784 8 0.48043 7.89464 0.292893 7.70711C0.105357 7.51957 0 7.26522 0 7V1C0 0.734784 0.105357 0.48043 0.292893 0.292893C0.48043 0.105357 0.734784 0 1 0H17ZM2 2V6H16V2H2Z" fill="white"/>
</svg>
