<svg width="18" height="20" viewBox="0 0 18 20" fill="none" xmlns="http://www.w3.org/2000/svg">
<path d="M9 10C8.34332 9.99994 7.69309 9.87053 7.08643 9.61917C6.47977 9.36781 5.92855 8.99942 5.46426 8.53504C4.99997 8.07065 4.63169 7.51936 4.38045 6.91265C4.12921 6.30593 3.99993 5.65568 4 4.999C4.00006 4.34233 4.12947 3.69209 4.38083 3.08543C4.63219 2.47877 5.00058 1.92755 5.46496 1.46326C5.92935 0.998967 6.48064 0.630689 7.08735 0.379451C7.69407 0.128213 8.34432 -0.00106427 9.001 -0.000998664C10.3272 -0.000866172 11.5991 0.526097 12.5367 1.46397C13.4744 2.40184 14.0011 3.67379 14.001 5C14.0009 6.32622 13.4739 7.59806 12.536 8.53574C11.5982 9.47342 10.3262 10.0001 9 10V10ZM8 8L10 8L10 6.001L12 6L12 4L10 4.001L10 2L8 2L8 4.001L6 4L6 6L8 6.001L8 8ZM1 20C0.734784 20 0.480429 19.8946 0.292892 19.7071C0.105356 19.5196 -6.42368e-08 19.2652 -8.74228e-08 19L-6.11959e-07 13C-6.35145e-07 12.7348 0.105355 12.4804 0.292892 12.2929C0.480428 12.1054 0.734783 12 0.999999 12L17 12C17.2652 12 17.5196 12.1054 17.7071 12.2929C17.8946 12.4804 18 12.7348 18 13L18 19C18 19.2652 17.8946 19.5196 17.7071 19.7071C17.5196 19.8946 17.2652 20 17 20L1 20ZM16 18L16 14L2 14L2 18L16 18Z" fill="white"/>
</svg>
