<svg width="14" height="14" viewBox="0 0 14 14" fill="none" xmlns="http://www.w3.org/2000/svg">
<path d="M5.16667 9.33333V8.83333H4.66667H0.583333H0.5V8.75V0.583333V0.5H0.583333H8.75H8.83333V0.583333V4.66667V5.16667H9.33333H13.4167H13.5V5.25V13.4167V13.5H13.4167H5.25H5.16667V13.4167V9.33333ZM1.16667 0.666667H0.666667V1.16667V8.16667V8.66667H1.16667H5.01302H5.22667L5.37434 8.51228L5.42201 8.46245L5.53755 8.57799L5.48772 8.62566L5.33333 8.77333V8.98698V12.8333V13.3333H5.83333H12.8333H13.3333V12.8333V5.83333V5.33333H12.8333H8.98698H8.77333L8.62566 5.48772L8.57799 5.53755L8.46245 5.42201L8.51228 5.37434L8.66667 5.22667V5.01302V1.16667V0.666667H8.16667H1.16667ZM4.30928 4.44072L3.2045 3.33594L3.33594 3.2045L4.44072 4.30928L4.79427 4.66284L5.14782 4.30928L5.33333 4.12377V5.33333H4.12377L4.30928 5.14782L4.66284 4.79427L4.30928 4.44072ZM9.69072 9.55928L10.7955 10.6641L10.6641 10.7955L9.55928 9.69072L9.20573 9.33716L8.85218 9.69072L8.66667 9.87623V8.66667H9.87623L9.69072 8.85218L9.33716 9.20573L9.69072 9.55928ZM6.7045 7.16406L7.16406 6.7045L7.2955 6.83594L6.83594 7.2955L6.7045 7.16406Z" fill="white" stroke="#555555"/>
</svg>
