<svg width="14" height="14" viewBox="0 0 14 14" fill="none" xmlns="http://www.w3.org/2000/svg">
<path d="M9.70555 8.54088H9.09216L8.87475 8.33124C9.66197 7.41816 10.0946 6.25246 10.0938 5.04689C10.0938 4.04871 9.79777 3.07294 9.24322 2.24299C8.68866 1.41303 7.90044 0.76616 6.97824 0.384173C6.05605 0.00218674 5.04129 -0.0977584 4.06229 0.0969767C3.08329 0.291712 2.18402 0.772381 1.4782 1.4782C0.772381 2.18402 0.291712 3.08329 0.0969767 4.06229C-0.0977584 5.04129 0.00218674 6.05605 0.384173 6.97824C0.76616 7.90044 1.41303 8.68866 2.24299 9.24322C3.07294 9.79777 4.04871 10.0938 5.04689 10.0938C6.29696 10.0938 7.4461 9.63567 8.33124 8.87475L8.54088 9.09216V9.70555L12.4231 13.58L13.58 12.4231L9.70555 8.54088V8.54088ZM5.04689 8.54088C3.11354 8.54088 1.55289 6.98023 1.55289 5.04689C1.55289 3.11354 3.11354 1.55289 5.04689 1.55289C6.98023 1.55289 8.54088 3.11354 8.54088 5.04689C8.54088 6.98023 6.98023 8.54088 5.04689 8.54088Z" fill="#555555"/>
</svg>
