<svg width="14" height="14" viewBox="0 0 14 14" fill="none" xmlns="http://www.w3.org/2000/svg">
<path d="M0 0V0.583333V8.75V9.33333H0.583333H4.66667V13.4167V14H5.25H13.4167H14V13.4167V5.25V4.66667H13.4167H9.33333V0.583333V0H8.75H0.583333H0ZM1.16667 1.16667H8.16667V5.01302L7.7474 5.41406L8.58594 6.2526L8.98698 5.83333H12.8333V12.8333H5.83333V8.98698L6.2526 8.58594L5.41406 7.7474L5.01302 8.16667H1.16667V1.16667ZM7.16406 5.9974L5.9974 7.16406L6.83594 8.0026L8.0026 6.83594L7.16406 5.9974Z" fill="#555555"/>
<path d="M0 0V0.583333V8.75V9.33333H0.583333H4.66667V13.4167V14H5.25H13.4167H14V13.4167V5.25V4.66667H13.4167H9.33333V0.583333V0H8.75H0.583333H0ZM1.16667 1.16667H8.16667V5.01302L7.7474 5.41406L8.58594 6.2526L8.98698 5.83333H12.8333V12.8333H5.83333V8.98698L6.2526 8.58594L5.41406 7.7474L5.01302 8.16667H1.16667V1.16667ZM7.16406 5.9974L5.9974 7.16406L6.83594 8.0026L8.0026 6.83594L7.16406 5.9974Z" fill="black" fill-opacity="0.2"/>
<path d="M0 0V0.583333V8.75V9.33333H0.583333H4.66667V13.4167V14H5.25H13.4167H14V13.4167V5.25V4.66667H13.4167H9.33333V0.583333V0H8.75H0.583333H0ZM1.16667 1.16667H8.16667V5.01302L7.7474 5.41406L8.58594 6.2526L8.98698 5.83333H12.8333V12.8333H5.83333V8.98698L6.2526 8.58594L5.41406 7.7474L5.01302 8.16667H1.16667V1.16667ZM7.16406 5.9974L5.9974 7.16406L6.83594 8.0026L8.0026 6.83594L7.16406 5.9974Z" fill="black" fill-opacity="0.2"/>
<path d="M5.83329 4.99477L4.99475 5.83331L3.53641 4.37498L2.49735 5.41404L2.49735 2.49738L5.41402 2.49738L4.37496 3.53644L5.83329 4.99477Z" fill="#555555"/>
<path d="M5.83329 4.99477L4.99475 5.83331L3.53641 4.37498L2.49735 5.41404L2.49735 2.49738L5.41402 2.49738L4.37496 3.53644L5.83329 4.99477Z" fill="black" fill-opacity="0.2"/>
<path d="M5.83329 4.99477L4.99475 5.83331L3.53641 4.37498L2.49735 5.41404L2.49735 2.49738L5.41402 2.49738L4.37496 3.53644L5.83329 4.99477Z" fill="black" fill-opacity="0.2"/>
<path d="M11.5026 8.58596L11.5026 11.5026L8.58598 11.5026L9.62504 10.4636L8.16671 9.00523L9.00525 8.16669L10.4636 9.62502L11.5026 8.58596Z" fill="#555555"/>
<path d="M11.5026 8.58596L11.5026 11.5026L8.58598 11.5026L9.62504 10.4636L8.16671 9.00523L9.00525 8.16669L10.4636 9.62502L11.5026 8.58596Z" fill="black" fill-opacity="0.2"/>
<path d="M11.5026 8.58596L11.5026 11.5026L8.58598 11.5026L9.62504 10.4636L8.16671 9.00523L9.00525 8.16669L10.4636 9.62502L11.5026 8.58596Z" fill="black" fill-opacity="0.2"/>
</svg>
